<?xml version="1.0" encoding="iso-8859-1"?>
<!-- Generator: Adobe Illustrator 19.0.0, SVG Export Plug-In . SVG Version: 6.00 Build 0)  -->
<svg version="1.1" id="Capa_1" xmlns="http://www.w3.org/2000/svg" xmlns:xlink="http://www.w3.org/1999/xlink" x="0px" y="0px"
	 viewBox="0 0 512 512" style="enable-background:new 0 0 512 512;" xml:space="preserve">
<g>
	<g>
		<path d="M492,0H155C69.532,0,0,69.532,0,155s69.532,155,155,155h71c11.046,0,20-8.954,20-20c0-11.046-8.954-20-20-20h-71
			c-63.411,0-115-51.589-115-115S91.589,40,155,40h131v452c0,11.046,8.954,20,20,20c11.046,0,20-8.954,20-20V40h70v452
			c0,11.046,8.954,20,20,20c11.046,0,20-8.954,20-20V40h56c11.046,0,20-8.954,20-20S503.046,0,492,0z"/>
	</g>
</g>
<g>
</g>
<g>
</g>
<g>
</g>
<g>
</g>
<g>
</g>
<g>
</g>
<g>
</g>
<g>
</g>
<g>
</g>
<g>
</g>
<g>
</g>
<g>
</g>
<g>
</g>
<g>
</g>
<g>
</g>
</svg>
